<?xml version="1.0" encoding="UTF-8" standalone="no"?>
<!-- Created with Inkscape (http://www.inkscape.org/) -->

<svg
   xmlns:ns1="http://www.iki.fi/pav/software/textext/"
   xmlns:osb="http://www.openswatchbook.org/uri/2009/osb"
   xmlns:dc="http://purl.org/dc/elements/1.1/"
   xmlns:cc="http://creativecommons.org/ns#"
   xmlns:rdf="http://www.w3.org/1999/02/22-rdf-syntax-ns#"
   xmlns:svg="http://www.w3.org/2000/svg"
   xmlns="http://www.w3.org/2000/svg"
   xmlns:sodipodi="http://sodipodi.sourceforge.net/DTD/sodipodi-0.dtd"
   xmlns:inkscape="http://www.inkscape.org/namespaces/inkscape"
   sodipodi:docname="SVM.svg"
   inkscape:version="0.92.4 (5da689c313, 2019-01-14)"
   id="svg8"
   version="1.1"
   viewBox="0 0 297.00001 209.99999"
   height="595.27557pt"
   width="841.88977pt">
  <defs
     id="defs2">
    <marker
       inkscape:stockid="SquareM"
       orient="auto"
       refY="0.0"
       refX="0.0"
       id="marker2843"
       style="overflow:visible"
       inkscape:isstock="true">
      <path
         id="path2841"
         d="M -5.0,-5.0 L -5.0,5.0 L 5.0,5.0 L 5.0,-5.0 L -5.0,-5.0 z "
         style="fill-rule:evenodd;stroke:#000000;stroke-width:1pt;stroke-opacity:1;fill:#000000;fill-opacity:1"
         transform="scale(0.4)" />
    </marker>
    <marker
       inkscape:stockid="SquareM"
       orient="auto"
       refY="0.0"
       refX="0.0"
       id="SquareM"
       style="overflow:visible"
       inkscape:isstock="true">
      <path
         id="path2596"
         d="M -5.0,-5.0 L -5.0,5.0 L 5.0,5.0 L 5.0,-5.0 L -5.0,-5.0 z "
         style="fill-rule:evenodd;stroke:#000000;stroke-width:1pt;stroke-opacity:1;fill:#000000;fill-opacity:1"
         transform="scale(0.4)" />
    </marker>
    <inkscape:path-effect
       effect="bspline"
       id="path-effect1224"
       is_visible="true"
       weight="33.333333"
       steps="2"
       helper_size="0"
       apply_no_weight="true"
       apply_with_weight="true"
       only_selected="false" />
    <inkscape:path-effect
       effect="bspline"
       id="path-effect4814"
       is_visible="true"
       weight="33.333333"
       steps="2"
       helper_size="0"
       apply_no_weight="true"
       apply_with_weight="true"
       only_selected="false" />
    <linearGradient
       id="linearGradient3863"
       osb:paint="solid">
      <stop
         style="stop-color:#6f6f6f;stop-opacity:1;"
         offset="0"
         id="stop3861" />
    </linearGradient>
    <marker
       inkscape:stockid="SquareL"
       orient="auto"
       refY="0"
       refX="0"
       id="SquareL"
       style="overflow:visible"
       inkscape:isstock="true">
      <path
         id="path1083"
         d="M -5,-5 V 5 H 5 V -5 Z"
         style="fill:#000000;fill-opacity:1;fill-rule:evenodd;stroke:#000000;stroke-width:1.00000003pt;stroke-opacity:1"
         transform="scale(0.8)"
         inkscape:connector-curvature="0" />
    </marker>
    <marker
       inkscape:stockid="StopS"
       orient="auto"
       refY="0"
       refX="0"
       id="StopS"
       style="overflow:visible"
       inkscape:isstock="true">
      <path
         id="path1188"
         d="M 0,5.65 V -5.65"
         style="fill:none;fill-opacity:0.75;fill-rule:evenodd;stroke:#000000;stroke-width:1.00000003pt;stroke-opacity:1"
         transform="scale(0.2)"
         inkscape:connector-curvature="0" />
    </marker>
    <marker
       inkscape:stockid="StopL"
       orient="auto"
       refY="0"
       refX="0"
       id="StopL"
       style="overflow:visible"
       inkscape:isstock="true">
      <path
         id="path1182"
         d="M 0,5.65 V -5.65"
         style="fill:none;fill-opacity:0.75;fill-rule:evenodd;stroke:#000000;stroke-width:1.00000003pt;stroke-opacity:1"
         transform="scale(0.8)"
         inkscape:connector-curvature="0" />
    </marker>
    <inkscape:path-effect
       effect="bspline"
       id="path-effect1323"
       is_visible="true"
       weight="33.333333"
       steps="2"
       helper_size="0"
       apply_no_weight="true"
       apply_with_weight="true"
       only_selected="false" />
    <marker
       inkscape:stockid="Arrow2Lend"
       orient="auto"
       refY="0"
       refX="0"
       id="Arrow2Lend"
       style="overflow:visible"
       inkscape:isstock="true">
      <path
         id="path1034"
         style="fill:#000000;fill-opacity:1;fill-rule:evenodd;stroke:#000000;stroke-width:0.625;stroke-linejoin:round;stroke-opacity:1"
         d="M 8.7185878,4.0337352 -2.2072895,0.01601326 8.7185884,-4.0017078 c -1.7454984,2.3720609 -1.7354408,5.6174519 -6e-7,8.035443 z"
         transform="matrix(-1.1,0,0,-1.1,-1.1,0)"
         inkscape:connector-curvature="0" />
    </marker>
    <marker
       inkscape:stockid="Arrow1Send"
       orient="auto"
       refY="0"
       refX="0"
       id="Arrow1Send"
       style="overflow:visible"
       inkscape:isstock="true">
      <path
         id="path1028"
         d="M 0,0 5,-5 -12.5,0 5,5 Z"
         style="fill:#000000;fill-opacity:1;fill-rule:evenodd;stroke:#000000;stroke-width:1.00000003pt;stroke-opacity:1"
         transform="matrix(-0.2,0,0,-0.2,-1.2,0)"
         inkscape:connector-curvature="0" />
    </marker>
    <inkscape:path-effect
       effect="bspline"
       id="path-effect1011"
       is_visible="true"
       weight="33.333333"
       steps="2"
       helper_size="0"
       apply_no_weight="true"
       apply_with_weight="true"
       only_selected="false" />
    <inkscape:path-effect
       effect="bspline"
       id="path-effect999"
       is_visible="true"
       weight="33.333333"
       steps="2"
       helper_size="0"
       apply_no_weight="true"
       apply_with_weight="true"
       only_selected="false" />
  </defs>
  <sodipodi:namedview
     id="base"
     pagecolor="#ffffff"
     bordercolor="#666666"
     borderopacity="1.0"
     inkscape:pageopacity="0.0"
     inkscape:pageshadow="2"
     inkscape:zoom="1.979899"
     inkscape:cx="556.63759"
     inkscape:cy="643.40815"
     inkscape:document-units="mm"
     inkscape:current-layer="layer1"
     showgrid="false"
     showguides="false"
     inkscape:window-width="1280"
     inkscape:window-height="737"
     inkscape:window-x="-8"
     inkscape:window-y="-8"
     inkscape:window-maximized="1"
     units="pt" />
  <metadata
     id="metadata5">
    <rdf:RDF>
      <cc:Work
         rdf:about="">
        <dc:format>image/svg+xml</dc:format>
        <dc:type
           rdf:resource="http://purl.org/dc/dcmitype/StillImage" />
        <dc:title></dc:title>
      </cc:Work>
    </rdf:RDF>
  </metadata>
  <g
     inkscape:label="Layer 1"
     inkscape:groupmode="layer"
     id="layer1"
     transform="translate(0,-87.000002)">
    <ellipse
       id="path10-3-7"
       cx="59.521358"
       cy="171.46809"
       style="fill:#aa0000;stroke-width:0.23101911"
       rx="7.156527"
       ry="6.8178668" />
    <ellipse
       id="path10-3-7-6-1"
       cx="96.563759"
       cy="204.99899"
       style="fill:#0066ff;stroke-width:0.23101911"
       rx="7.156527"
       ry="6.8178668" />
    <path
       style="fill:none;stroke:none;stroke-width:0.23138291;stroke-linecap:butt;stroke-linejoin:miter;stroke-miterlimit:4;stroke-dasharray:none;stroke-opacity:1"
       d="m 44.713448,214.28021 19.94588,14.25571 101.374252,-109.33248 -19.94586,-14.2557 z"
       id="path968"
       inkscape:connector-curvature="0" />
    <flowRoot
       xml:space="preserve"
       id="flowRoot1001-2-7"
       style="font-style:normal;font-weight:normal;font-size:40px;line-height:1.25;font-family:sans-serif;letter-spacing:0px;word-spacing:0px;writing-mode:lr-tb;fill:#000000;fill-opacity:1;stroke:none"
       transform="matrix(0.2121896,0.15805035,-0.15805035,0.2121896,-51.624886,64.303169)"><flowRegion
         id="flowRegion1003-5-1"
         style="writing-mode:lr-tb"><rect
           id="rect1005-1-6"
           width="179.30205"
           height="124.24878"
           x="473.76154"
           y="67.920425"
           style="writing-mode:lr-tb" /></flowRegion><flowPara
         id="flowPara1007-0-1"
         style="font-style:normal;font-variant:normal;font-weight:normal;font-stretch:normal;font-family:'Bodoni MT';-inkscape-font-specification:'Bodoni MT';writing-mode:lr-tb" /></flowRoot>    <flowRoot
       xml:space="preserve"
       id="flowRoot1001-2-7-7"
       style="font-style:normal;font-weight:normal;font-size:40px;line-height:1.25;font-family:sans-serif;letter-spacing:0px;word-spacing:0px;writing-mode:lr-tb;fill:#000000;fill-opacity:1;stroke:none"
       transform="matrix(0.16422578,-0.20744694,0.20744694,0.16422578,8.4623186,153.70294)"><flowRegion
         id="flowRegion1003-5-1-0"
         style="writing-mode:lr-tb"><rect
           id="rect1005-1-6-2"
           width="179.30205"
           height="124.24878"
           x="473.76154"
           y="67.920425"
           style="writing-mode:lr-tb" /></flowRegion><flowPara
         style="font-style:normal;font-variant:normal;font-weight:normal;font-stretch:normal;font-family:'Bodoni MT';-inkscape-font-specification:'Bodoni MT';writing-mode:lr-tb"
         id="flowPara1829" /></flowRoot>    <ellipse
       id="path10-3-7-6-7"
       cx="31.224268"
       cy="159.05739"
       style="fill:#aa0000;stroke-width:0.23101911"
       rx="7.156527"
       ry="6.8178668" />
    <ellipse
       id="path10-3-7-6-0"
       cx="82.957314"
       cy="105.90691"
       style="fill:#aa0000;stroke-width:0.23101911"
       rx="7.156527"
       ry="6.8178668" />
    <ellipse
       id="path10-3-7-6-70"
       cx="95.467934"
       cy="135.86446"
       style="fill:#aa0000;stroke-width:0.23101911"
       rx="7.156527"
       ry="6.8178668" />
    <ellipse
       id="path10-3-7-6-1-2"
       cx="127.25163"
       cy="170.0096"
       style="fill:#0066ff;stroke-width:0.23101911"
       rx="7.156527"
       ry="6.8178668" />
    <ellipse
       id="path10-3-7-6-1-2-0"
       cx="165.34804"
       cy="154.30673"
       style="fill:#0066ff;stroke-width:0.23101911"
       rx="7.156527"
       ry="6.8178668" />
    <ellipse
       id="path10-3-7-6-1-48"
       cx="146.97499"
       cy="199.03963"
       style="fill:#0066ff;stroke-width:0.23101911"
       inkscape:transform-center-x="-5.0208908"
       inkscape:transform-center-y="11.161032"
       rx="7.156527"
       ry="6.8178668" />
    <g
       id="g750"
       ns1:jacobian_sqrt="0.705556"
       inkscapeversion="0.92.4"
       ns1:alignment="middle center"
       ns1:scale="2.0"
       ns1:preamble="C:\\Users\\Daniela\\AppData\\Roaming\\inkscape\\extensions\\textext\\default_packages.tex"
       ns1:text="$sgn(\\mathbf{W}^{T}x+b)=1$"
       ns1:pdfconverter="pdf2svg"
       ns1:texconverter="xelatex"
       ns1:version="0.11.0"
       transform="matrix(0.42183144,-0.44728129,0.46949885,0.40186959,-15.207812,150.49989)"
       style="fill:#aa0000">
      <g
         id="g748"
         style="fill:#aa0000">
        <g
           id="g706"
           style="fill:#aa0000;fill-opacity:1">
          <path
             id="path702"
             transform="translate(148.712,134.765)"
             d="m 3.890625,-4.0625 c -0.265625,0.015625 -0.65625,0.40625 -0.65625,0.625 0,0.140625 0.28125,0.453125 0.5,0.453125 0.21875,0 0.625,-0.328125 0.625,-0.71875 0,-0.453125 -0.59375,-1.03125 -1.359375,-1.03125 -1.3125,0 -1.859375,1.1875 -1.859375,1.625 0,0.78125 0.90625,1.078125 1.203125,1.140625 0.515625,0.109375 0.859375,0.0625 0.859375,0.609375 0,0.25 -0.046875,0.921875 -1.25,0.921875 -0.140625,0 -0.734375,0.171875 -0.875,-0.15625 0.125,0 0.53125,-0.453125 0.53125,-0.734375 0,-0.234375 -0.328125,-0.515625 -0.53125,-0.515625 -0.265625,0 -0.734375,0.375 -0.734375,0.828125 0,0.5625 0.75,1.125 1.59375,1.125 1.625,0 2.171875,-1.359375 2.171875,-1.8125 0,-0.359375 -0.234375,-0.734375 -0.34375,-0.84375 -0.28125,-0.28125 -0.6875,-0.390625 -1.125,-0.46875 C 2.28125,-3.09375 2.046875,-3 2.046875,-3.453125 2.046875,-3.734375 2.125,-4.1875 3,-4.1875 c 0.25,0 0.5625,-0.09375 0.65625,0.140625 z m 0,0"
             style="fill:#aa0000;stroke:none;stroke-width:0"
             inkscape:connector-curvature="0" />
          <path
             id="path704"
             transform="translate(153.38247,134.765)"
             d="m 4.859375,-3.921875 c 0.015625,-0.0625 0.03125,-0.109375 0.03125,-0.171875 0,-0.171875 -0.28125,-0.4375 -0.453125,-0.4375 -0.09375,0 -0.546875,0.234375 -0.59375,0.59375 H 4.203125 C 4.015625,-4.3125 3.5,-4.734375 3.09375,-4.734375 c -1.125,0 -2.546875,1.5625 -2.546875,3 0,0.984375 0.78125,1.734375 1.5,1.734375 0.59375,0 1.1875,-0.515625 1.15625,-0.5 L 3.03125,-0.671875 C 2.828125,0.15625 2.71875,0.5625 2.71875,0.59375 2.671875,0.671875 2.515625,1.5 1.453125,1.5 1.265625,1.5 0.9375,1.484375 0.65625,1.390625 V 1.71875 c 0.296875,-0.078125 0.578125,-0.5 0.578125,-0.671875 0,-0.15625 -0.28125,-0.515625 -0.546875,-0.515625 -0.21875,0 -0.71875,0.34375 -0.71875,0.75 0,0.40625 0.546875,0.765625 1.5,0.765625 1.25,0 2.140625,-0.9375 2.296875,-1.53125 z M 3.21875,-1.4375 c -0.0625,0.265625 -0.234375,0.390625 -0.453125,0.578125 -0.21875,0.1875 -0.390625,0.3125 -0.6875,0.3125 -0.5,0 -0.46875,-0.34375 -0.46875,-0.75 0,-0.484375 0.234375,-1.546875 0.5,-2.046875 0.265625,-0.5 0.578125,-0.84375 1,-0.84375 0.65625,0 0.625,0.65625 0.625,0.703125 0,0.046875 -0.03125,0.109375 -0.03125,0.140625 z m 0,0"
             style="fill:#aa0000;stroke:none;stroke-width:0"
             inkscape:connector-curvature="0" />
        </g>
        <g
           id="g710"
           style="fill:#aa0000;fill-opacity:1">
          <path
             id="path708"
             transform="translate(158.48332,134.765)"
             d="m 0.703125,-0.75 c -0.03125,0.15625 -0.09375,0.375 -0.09375,0.4375 0,0.171875 0.3125,0.421875 0.46875,0.421875 0.125,0 0.46875,-0.234375 0.515625,-0.390625 C 1.578125,-0.234375 1.75,-0.8125 1.796875,-1.0625 L 2.03125,-1.96875 C 2.078125,-2.1875 2.140625,-2.40625 2.1875,-2.625 c 0.046875,-0.171875 0.125,-0.46875 0.140625,-0.5 0.140625,-0.3125 0.5,-1.0625 1.453125,-1.0625 0.453125,0 0.359375,0.203125 0.359375,0.53125 0,0.625 -0.484375,1.90625 -0.65625,2.328125 -0.078125,0.234375 -0.09375,0.34375 -0.09375,0.453125 0,0.46875 0.53125,0.984375 1,0.984375 0.9375,0 1.46875,-1.609375 1.46875,-1.6875 0,-0.109375 -0.25,-0.28125 -0.28125,-0.28125 -0.109375,0 -0.28125,0.203125 -0.328125,0.359375 -0.203125,0.671875 -0.359375,1.0625 -0.84375,1.0625 -0.171875,0 -0.0625,0.0625 -0.0625,-0.15625 0,-0.25 0.078125,-0.5 0.171875,-0.71875 C 4.703125,-1.828125 5.125,-2.9375 5.125,-3.5 c 0,-0.671875 -0.59375,-1.234375 -1.3125,-1.234375 -0.90625,0 -1.515625,0.6875 -1.6875,0.921875 l 0.296875,0.109375 C 2.375,-4.25 1.796875,-4.734375 1.328125,-4.734375 c -0.453125,0 -0.765625,0.4375 -0.84375,0.5625 -0.234375,0.515625 -0.375,1.09375 -0.375,1.140625 0,0.09375 0.28125,0.265625 0.296875,0.265625 0.109375,0 0.28125,-0.171875 0.34375,-0.390625 0.171875,-0.71875 0.203125,-1.03125 0.5625,-1.03125 0.1875,0 0.125,-0.03125 0.125,0.296875 0,0.21875 -0.03125,0.328125 -0.15625,0.84375 z m 0,0"
             style="fill:#aa0000;stroke:none;stroke-width:0"
             inkscape:connector-curvature="0" />
        </g>
        <g
           id="g714"
           style="fill:#aa0000;fill-opacity:1">
          <path
             id="path712"
             transform="translate(164.472,134.765)"
             d="M 3.46875,2.234375 C 3.46875,2.203125 3.421875,2.0625 3.25,1.890625 2,0.640625 1.734375,-1.125 1.734375,-2.65625 c 0,-1.734375 0.328125,-3.359375 1.5625,-4.59375 0.125,-0.125 0.171875,-0.25 0.171875,-0.28125 0,-0.078125 -0.203125,-0.28125 -0.265625,-0.28125 -0.109375,0 -1.171875,0.859375 -1.765625,2.125 -0.515625,1.09375 -0.625,2.203125 -0.625,3.03125 0,0.78125 0.109375,1.984375 0.65625,3.109375 C 2.0625,1.6875 3.09375,2.5 3.203125,2.5 3.265625,2.5 3.46875,2.296875 3.46875,2.234375 Z m 0,0"
             style="fill:#aa0000;stroke:none;stroke-width:0"
             inkscape:connector-curvature="0" />
        </g>
        <g
           id="g718"
           style="fill:#aa0000;fill-opacity:1">
          <path
             id="path716"
             transform="translate(168.346,134.765)"
             d="m 10.78125,-6.296875 c 0.0625,-0.15625 -0.0625,-0.015625 0.25,-0.046875 C 11.234375,-6.375 11.4375,-6.375 11.734375,-6.375 v -0.796875 c -0.40625,0.015625 -0.75,0.03125 -1.203125,0.03125 -0.375,0 -0.984375,0 -1.484375,-0.03125 V -6.375 c 0.390625,0 0.859375,0 0.96875,0.0625 L 8.34375,-1.96875 H 8.609375 L 6.921875,-6.375 H 7.8125 v -0.796875 c -0.515625,0.03125 -1.453125,0.03125 -1.875,0.03125 -0.390625,0 -1.1875,0 -1.671875,-0.03125 V -6.375 H 5.1875 l 0.34375,0.90625 -1.359375,3.5 h 0.28125 L 2.75,-6.375 h 0.890625 v -0.796875 c -0.515625,0.03125 -1.453125,0.03125 -1.875,0.03125 -0.390625,0 -1.171875,0 -1.671875,-0.03125 V -6.375 h 0.921875 l 2.328125,6.03125 c 0.0625,0.171875 0.25,0.421875 0.5,0.421875 0.25,0 0.40625,-0.25 0.46875,-0.421875 L 6.046875,-4.828125 H 5.78125 L 7.515625,-0.34375 C 7.578125,-0.171875 7.75,0.078125 8,0.078125 c 0.25,0 0.421875,-0.25 0.484375,-0.421875 z m 0,0"
             style="fill:#aa0000;stroke:none;stroke-width:0"
             inkscape:connector-curvature="0" />
        </g>
        <g
           id="g722"
           style="fill:#aa0000;fill-opacity:1">
          <path
             id="path720"
             transform="translate(180.349,131.149)"
             d="m 3.578125,-4.40625 c 0.046875,-0.203125 -0.125,-0.03125 0.03125,-0.046875 0.03125,0 0.265625,0 0.40625,0 0.4375,0 0.609375,0 0.78125,0.046875 0.3125,0.09375 0.140625,0.109375 0.140625,0.359375 0,0.109375 0,0.203125 -0.046875,0.5625 L 4.875,-3.40625 c 0,0.0625 0.234375,0.296875 0.3125,0.296875 0.109375,0 0.296875,-0.25 0.3125,-0.375 L 5.6875,-4.8125 c 0,-0.09375 -0.265625,-0.28125 -0.390625,-0.28125 h -4.28125 c -0.171875,0 -0.390625,0.1875 -0.4375,0.328125 l -0.4375,1.234375 C 0.125,-3.5 0.109375,-3.4375 0.109375,-3.40625 c 0,0.03125 0.203125,0.296875 0.3125,0.296875 0.09375,0 0.28125,-0.234375 0.328125,-0.359375 0.40625,-1.109375 0.453125,-0.984375 1.515625,-0.984375 h 0.28125 c 0.21875,0 0.03125,-0.1875 0.03125,-0.125 0,0 0,0.03125 -0.03125,0.140625 L 1.625,-0.78125 C 1.5625,-0.515625 1.734375,-0.640625 1,-0.640625 c -0.25,0 -0.5,0.1875 -0.5,0.34375 C 0.5,-0.265625 0.703125,0 0.8125,0 1,0 1.21875,-0.015625 1.40625,-0.015625 1.609375,-0.015625 1.8125,-0.03125 2,-0.03125 c 0.203125,0 0.4375,0 0.640625,0.015625 C 2.828125,-0.015625 3.03125,0 3.21875,0 3.28125,0 3.5625,-0.1875 3.5625,-0.34375 c 0,-0.109375 -0.25,-0.296875 -0.46875,-0.296875 -0.125,0 -0.265625,0 -0.40625,-0.015625 -0.234375,-0.015625 -0.0625,0.140625 -0.0625,0.0625 0,-0.046875 0,-0.0625 0.03125,-0.15625 z m 0,0"
             style="fill:#aa0000;stroke:none;stroke-width:0"
             inkscape:connector-curvature="0" />
        </g>
        <g
           id="g726"
           style="fill:#aa0000;fill-opacity:1">
          <path
             id="path724"
             transform="translate(186.626,134.765)"
             d="m 3.5,-3.171875 c 0.0625,-0.25 0.125,-1.015625 0.8125,-1.015625 0.046875,0 0.15625,-0.046875 0.375,0.078125 l 0.125,-0.28125 c -0.28125,0.046875 -0.65625,0.46875 -0.65625,0.71875 0,0.15625 0.296875,0.5 0.5625,0.5 0.21875,0 0.703125,-0.34375 0.703125,-0.734375 0,-0.515625 -0.75,-0.828125 -1.09375,-0.828125 -0.578125,0 -1.0625,0.578125 -1.03125,0.53125 C 3.203125,-4.46875 2.5,-4.734375 2.203125,-4.734375 c -1.03125,0 -1.78125,1.453125 -1.78125,1.703125 0,0.09375 0.28125,0.265625 0.296875,0.265625 0.078125,0 0.28125,-0.1875 0.296875,-0.28125 C 1.359375,-4.09375 1.84375,-4.1875 2.1875,-4.1875 2.375,-4.1875 2.546875,-4.25 2.546875,-3.671875 2.546875,-3.375 2.375,-2.703125 2,-1.3125 c -0.15625,0.625 -0.328125,0.875 -0.765625,0.875 -0.0625,0 -0.171875,0.046875 -0.375,-0.078125 l -0.125,0.28125 C 0.984375,-0.296875 1.375,-0.65625 1.375,-0.9375 c 0,-0.265625 -0.390625,-0.515625 -0.53125,-0.515625 -0.3125,0 -0.734375,0.421875 -0.734375,0.75 0,0.453125 0.671875,0.8125 1.109375,0.8125 0.671875,0 1.140625,-0.75 1.171875,-0.8125 L 2.09375,-0.8125 c 0.125,0.375 0.65625,0.921875 1.25,0.921875 1.03125,0 1.765625,-1.4375 1.765625,-1.6875 0,-0.109375 -0.25,-0.28125 -0.28125,-0.28125 -0.09375,0 -0.296875,0.21875 -0.3125,0.28125 C 4.1875,-0.515625 3.6875,-0.4375 3.375,-0.4375 c -0.390625,0 -0.390625,-0.15625 -0.390625,-0.484375 0,-0.21875 0.0625,-0.4375 0.171875,-0.875 z m 0,0"
             style="fill:#aa0000;stroke:none;stroke-width:0"
             inkscape:connector-curvature="0" />
        </g>
        <g
           id="g730"
           style="fill:#aa0000;fill-opacity:1">
          <path
             id="path728"
             transform="translate(194.533,134.765)"
             d="m 4.078125,-2.296875 h 2.78125 c 0.140625,0 0.5,-0.15625 0.5,-0.359375 0,-0.1875 -0.359375,-0.359375 -0.5,-0.359375 H 4.25 v -2.625 c 0,-0.140625 -0.171875,-0.5 -0.375,-0.5 -0.203125,0 -0.375,0.359375 -0.375,0.5 v 2.625 H 0.890625 C 0.75,-3.015625 0.375,-2.84375 0.375,-2.65625 c 0,0.203125 0.375,0.359375 0.515625,0.359375 H 3.5 V 0.34375 c 0,0.140625 0.171875,0.484375 0.375,0.484375 0.203125,0 0.375,-0.34375 0.375,-0.484375 v -2.640625 z m 0,0"
             style="fill:#aa0000;stroke:none;stroke-width:0"
             inkscape:connector-curvature="0" />
        </g>
        <g
           id="g734"
           style="fill:#aa0000;fill-opacity:1">
          <path
             id="path732"
             transform="translate(204.496,134.765)"
             d="M 2.546875,-6.96875 C 2.546875,-6.984375 2.375,-7.25 2.25,-7.25 c -0.21875,0 -0.953125,0.078125 -1.21875,0.109375 -0.078125,0 -0.359375,0.1875 -0.359375,0.359375 0,0.125 0.265625,0.28125 0.421875,0.28125 0.46875,0 0.3125,-0.09375 0.3125,0.015625 0,0.0625 -0.09375,0.40625 -0.140625,0.609375 l -0.8125,3.25 c -0.125,0.5 -0.15625,0.65625 -0.15625,1.015625 0,0.9375 0.703125,1.71875 1.4375,1.71875 1.171875,0 2.578125,-1.640625 2.578125,-3.078125 0,-0.90625 -0.703125,-1.765625 -1.5,-1.765625 -0.453125,0 -1,0.34375 -1.296875,0.640625 l 0.296875,0.125 z m -0.9375,3.765625 c 0.0625,-0.21875 0.015625,-0.125 0.109375,-0.234375 0.484375,-0.65625 0.8125,-0.75 1.078125,-0.75 0.359375,0 0.4375,0.140625 0.4375,0.78125 0,0.578125 -0.328125,1.734375 -0.5,2.109375 -0.328125,0.671875 -0.609375,0.859375 -1,0.859375 -0.34375,0 -0.5,-0.09375 -0.5,-0.84375 0,-0.1875 0,-0.375 0.15625,-1 z m 0,0"
             style="fill:#aa0000;stroke:none;stroke-width:0"
             inkscape:connector-curvature="0" />
        </g>
        <g
           id="g738"
           style="fill:#aa0000;fill-opacity:1">
          <path
             id="path736"
             transform="translate(208.772,134.765)"
             d="m 3.046875,-2.65625 c 0,-0.765625 -0.109375,-1.984375 -0.65625,-3.109375 -0.59375,-1.21875 -1.625,-2.046875 -1.71875,-2.046875 -0.0625,0 -0.28125,0.21875 -0.28125,0.28125 0,0.03125 0.046875,0.15625 0.234375,0.328125 0.984375,1 1.5,2.46875 1.5,4.546875 0,1.703125 -0.328125,3.34375 -1.5625,4.59375 -0.125,0.125 -0.171875,0.265625 -0.171875,0.296875 0,0.0625 0.21875,0.265625 0.28125,0.265625 0.09375,0 1.15625,-0.84375 1.75,-2.109375 0.515625,-1.09375 0.625,-2.203125 0.625,-3.046875 z m 0,0"
             style="fill:#aa0000;stroke:none;stroke-width:0"
             inkscape:connector-curvature="0" />
        </g>
        <g
           id="g742"
           style="fill:#aa0000;fill-opacity:1">
          <path
             id="path740"
             transform="translate(215.40609,134.765)"
             d="m 6.84375,-3.265625 c 0.15625,0 0.515625,-0.15625 0.515625,-0.359375 0,-0.1875 -0.359375,-0.359375 -0.5,-0.359375 H 0.890625 C 0.75,-3.984375 0.375,-3.8125 0.375,-3.625 c 0,0.203125 0.375,0.359375 0.515625,0.359375 z m 0.015625,1.9375 c 0.140625,0 0.5,-0.15625 0.5,-0.359375 C 7.359375,-1.890625 7,-2.046875 6.84375,-2.046875 H 0.890625 C 0.75,-2.046875 0.375,-1.890625 0.375,-1.6875 c 0,0.203125 0.375,0.359375 0.515625,0.359375 z m 0,0"
             style="fill:#aa0000;stroke:none;stroke-width:0"
             inkscape:connector-curvature="0" />
        </g>
        <g
           id="g746"
           style="fill:#aa0000;fill-opacity:1">
          <path
             id="path744"
             transform="translate(225.92461,134.765)"
             d="M 3.09375,-6.546875 C 3.09375,-6.78125 2.9375,-6.96875 2.625,-6.96875 1.953125,-6.28125 1.203125,-6.328125 0.703125,-6.328125 V -5.6875 c 0.390625,0 1.09375,-0.046875 1.3125,-0.171875 v 4.90625 c 0,0.359375 0.140625,0.3125 -0.75,0.3125 h -0.5 v 0.65625 C 1.296875,-0.03125 2.15625,-0.03125 2.5625,-0.03125 c 0.390625,0 1.265625,0 1.78125,0.046875 v -0.65625 H 3.859375 c -0.90625,0 -0.765625,0.0625 -0.765625,-0.3125 z m 0,0"
             style="fill:#aa0000;stroke:none;stroke-width:0"
             inkscape:connector-curvature="0" />
        </g>
      </g>
    </g>
    <g
       id="g900"
       ns1:jacobian_sqrt="0.705556"
       inkscapeversion="0.92.4"
       ns1:alignment="middle center"
       ns1:scale="2.0"
       ns1:preamble="C:\\Users\\Daniela\\AppData\\Roaming\\inkscape\\extensions\\textext\\default_packages.tex"
       ns1:text="$sgn(\\mathbf{W}^{T}x+b)=-1$"
       ns1:pdfconverter="pdf2svg"
       ns1:texconverter="xelatex"
       ns1:version="0.11.0"
       transform="matrix(0.4285827,-0.44141784,0.46334415,0.40830137,9.272408,173.90045)"
       style="fill:#0066ff">
      <g
         id="g898"
         style="fill:#0066ff">
        <g
           id="g852"
           style="fill:#0066ff;fill-opacity:1">
          <path
             id="path848"
             transform="translate(148.712,134.765)"
             d="m 3.890625,-4.0625 c -0.265625,0.015625 -0.65625,0.40625 -0.65625,0.625 0,0.140625 0.28125,0.453125 0.5,0.453125 0.21875,0 0.625,-0.328125 0.625,-0.71875 0,-0.453125 -0.59375,-1.03125 -1.359375,-1.03125 -1.3125,0 -1.859375,1.1875 -1.859375,1.625 0,0.78125 0.90625,1.078125 1.203125,1.140625 0.515625,0.109375 0.859375,0.0625 0.859375,0.609375 0,0.25 -0.046875,0.921875 -1.25,0.921875 -0.140625,0 -0.734375,0.171875 -0.875,-0.15625 0.125,0 0.53125,-0.453125 0.53125,-0.734375 0,-0.234375 -0.328125,-0.515625 -0.53125,-0.515625 -0.265625,0 -0.734375,0.375 -0.734375,0.828125 0,0.5625 0.75,1.125 1.59375,1.125 1.625,0 2.171875,-1.359375 2.171875,-1.8125 0,-0.359375 -0.234375,-0.734375 -0.34375,-0.84375 -0.28125,-0.28125 -0.6875,-0.390625 -1.125,-0.46875 C 2.28125,-3.09375 2.046875,-3 2.046875,-3.453125 2.046875,-3.734375 2.125,-4.1875 3,-4.1875 c 0.25,0 0.5625,-0.09375 0.65625,0.140625 z m 0,0"
             style="fill:#0066ff;stroke:none;stroke-width:0"
             inkscape:connector-curvature="0" />
          <path
             id="path850"
             transform="translate(153.38247,134.765)"
             d="m 4.859375,-3.921875 c 0.015625,-0.0625 0.03125,-0.109375 0.03125,-0.171875 0,-0.171875 -0.28125,-0.4375 -0.453125,-0.4375 -0.09375,0 -0.546875,0.234375 -0.59375,0.59375 H 4.203125 C 4.015625,-4.3125 3.5,-4.734375 3.09375,-4.734375 c -1.125,0 -2.546875,1.5625 -2.546875,3 0,0.984375 0.78125,1.734375 1.5,1.734375 0.59375,0 1.1875,-0.515625 1.15625,-0.5 L 3.03125,-0.671875 C 2.828125,0.15625 2.71875,0.5625 2.71875,0.59375 2.671875,0.671875 2.515625,1.5 1.453125,1.5 1.265625,1.5 0.9375,1.484375 0.65625,1.390625 V 1.71875 c 0.296875,-0.078125 0.578125,-0.5 0.578125,-0.671875 0,-0.15625 -0.28125,-0.515625 -0.546875,-0.515625 -0.21875,0 -0.71875,0.34375 -0.71875,0.75 0,0.40625 0.546875,0.765625 1.5,0.765625 1.25,0 2.140625,-0.9375 2.296875,-1.53125 z M 3.21875,-1.4375 c -0.0625,0.265625 -0.234375,0.390625 -0.453125,0.578125 -0.21875,0.1875 -0.390625,0.3125 -0.6875,0.3125 -0.5,0 -0.46875,-0.34375 -0.46875,-0.75 0,-0.484375 0.234375,-1.546875 0.5,-2.046875 0.265625,-0.5 0.578125,-0.84375 1,-0.84375 0.65625,0 0.625,0.65625 0.625,0.703125 0,0.046875 -0.03125,0.109375 -0.03125,0.140625 z m 0,0"
             style="fill:#0066ff;stroke:none;stroke-width:0"
             inkscape:connector-curvature="0" />
        </g>
        <g
           id="g856"
           style="fill:#0066ff;fill-opacity:1">
          <path
             id="path854"
             transform="translate(158.48332,134.765)"
             d="m 0.703125,-0.75 c -0.03125,0.15625 -0.09375,0.375 -0.09375,0.4375 0,0.171875 0.3125,0.421875 0.46875,0.421875 0.125,0 0.46875,-0.234375 0.515625,-0.390625 C 1.578125,-0.234375 1.75,-0.8125 1.796875,-1.0625 L 2.03125,-1.96875 C 2.078125,-2.1875 2.140625,-2.40625 2.1875,-2.625 c 0.046875,-0.171875 0.125,-0.46875 0.140625,-0.5 0.140625,-0.3125 0.5,-1.0625 1.453125,-1.0625 0.453125,0 0.359375,0.203125 0.359375,0.53125 0,0.625 -0.484375,1.90625 -0.65625,2.328125 -0.078125,0.234375 -0.09375,0.34375 -0.09375,0.453125 0,0.46875 0.53125,0.984375 1,0.984375 0.9375,0 1.46875,-1.609375 1.46875,-1.6875 0,-0.109375 -0.25,-0.28125 -0.28125,-0.28125 -0.109375,0 -0.28125,0.203125 -0.328125,0.359375 -0.203125,0.671875 -0.359375,1.0625 -0.84375,1.0625 -0.171875,0 -0.0625,0.0625 -0.0625,-0.15625 0,-0.25 0.078125,-0.5 0.171875,-0.71875 C 4.703125,-1.828125 5.125,-2.9375 5.125,-3.5 c 0,-0.671875 -0.59375,-1.234375 -1.3125,-1.234375 -0.90625,0 -1.515625,0.6875 -1.6875,0.921875 l 0.296875,0.109375 C 2.375,-4.25 1.796875,-4.734375 1.328125,-4.734375 c -0.453125,0 -0.765625,0.4375 -0.84375,0.5625 -0.234375,0.515625 -0.375,1.09375 -0.375,1.140625 0,0.09375 0.28125,0.265625 0.296875,0.265625 0.109375,0 0.28125,-0.171875 0.34375,-0.390625 0.171875,-0.71875 0.203125,-1.03125 0.5625,-1.03125 0.1875,0 0.125,-0.03125 0.125,0.296875 0,0.21875 -0.03125,0.328125 -0.15625,0.84375 z m 0,0"
             style="fill:#0066ff;stroke:none;stroke-width:0"
             inkscape:connector-curvature="0" />
        </g>
        <g
           id="g860"
           style="fill:#0066ff;fill-opacity:1">
          <path
             id="path858"
             transform="translate(164.472,134.765)"
             d="M 3.46875,2.234375 C 3.46875,2.203125 3.421875,2.0625 3.25,1.890625 2,0.640625 1.734375,-1.125 1.734375,-2.65625 c 0,-1.734375 0.328125,-3.359375 1.5625,-4.59375 0.125,-0.125 0.171875,-0.25 0.171875,-0.28125 0,-0.078125 -0.203125,-0.28125 -0.265625,-0.28125 -0.109375,0 -1.171875,0.859375 -1.765625,2.125 -0.515625,1.09375 -0.625,2.203125 -0.625,3.03125 0,0.78125 0.109375,1.984375 0.65625,3.109375 C 2.0625,1.6875 3.09375,2.5 3.203125,2.5 3.265625,2.5 3.46875,2.296875 3.46875,2.234375 Z m 0,0"
             style="fill:#0066ff;stroke:none;stroke-width:0"
             inkscape:connector-curvature="0" />
        </g>
        <g
           id="g864"
           style="fill:#0066ff;fill-opacity:1">
          <path
             id="path862"
             transform="translate(168.346,134.765)"
             d="m 10.78125,-6.296875 c 0.0625,-0.15625 -0.0625,-0.015625 0.25,-0.046875 C 11.234375,-6.375 11.4375,-6.375 11.734375,-6.375 v -0.796875 c -0.40625,0.015625 -0.75,0.03125 -1.203125,0.03125 -0.375,0 -0.984375,0 -1.484375,-0.03125 V -6.375 c 0.390625,0 0.859375,0 0.96875,0.0625 L 8.34375,-1.96875 H 8.609375 L 6.921875,-6.375 H 7.8125 v -0.796875 c -0.515625,0.03125 -1.453125,0.03125 -1.875,0.03125 -0.390625,0 -1.1875,0 -1.671875,-0.03125 V -6.375 H 5.1875 l 0.34375,0.90625 -1.359375,3.5 h 0.28125 L 2.75,-6.375 h 0.890625 v -0.796875 c -0.515625,0.03125 -1.453125,0.03125 -1.875,0.03125 -0.390625,0 -1.171875,0 -1.671875,-0.03125 V -6.375 h 0.921875 l 2.328125,6.03125 c 0.0625,0.171875 0.25,0.421875 0.5,0.421875 0.25,0 0.40625,-0.25 0.46875,-0.421875 L 6.046875,-4.828125 H 5.78125 L 7.515625,-0.34375 C 7.578125,-0.171875 7.75,0.078125 8,0.078125 c 0.25,0 0.421875,-0.25 0.484375,-0.421875 z m 0,0"
             style="fill:#0066ff;stroke:none;stroke-width:0"
             inkscape:connector-curvature="0" />
        </g>
        <g
           id="g868"
           style="fill:#0066ff;fill-opacity:1">
          <path
             id="path866"
             transform="translate(180.349,131.149)"
             d="m 3.578125,-4.40625 c 0.046875,-0.203125 -0.125,-0.03125 0.03125,-0.046875 0.03125,0 0.265625,0 0.40625,0 0.4375,0 0.609375,0 0.78125,0.046875 0.3125,0.09375 0.140625,0.109375 0.140625,0.359375 0,0.109375 0,0.203125 -0.046875,0.5625 L 4.875,-3.40625 c 0,0.0625 0.234375,0.296875 0.3125,0.296875 0.109375,0 0.296875,-0.25 0.3125,-0.375 L 5.6875,-4.8125 c 0,-0.09375 -0.265625,-0.28125 -0.390625,-0.28125 h -4.28125 c -0.171875,0 -0.390625,0.1875 -0.4375,0.328125 l -0.4375,1.234375 C 0.125,-3.5 0.109375,-3.4375 0.109375,-3.40625 c 0,0.03125 0.203125,0.296875 0.3125,0.296875 0.09375,0 0.28125,-0.234375 0.328125,-0.359375 0.40625,-1.109375 0.453125,-0.984375 1.515625,-0.984375 h 0.28125 c 0.21875,0 0.03125,-0.1875 0.03125,-0.125 0,0 0,0.03125 -0.03125,0.140625 L 1.625,-0.78125 C 1.5625,-0.515625 1.734375,-0.640625 1,-0.640625 c -0.25,0 -0.5,0.1875 -0.5,0.34375 C 0.5,-0.265625 0.703125,0 0.8125,0 1,0 1.21875,-0.015625 1.40625,-0.015625 1.609375,-0.015625 1.8125,-0.03125 2,-0.03125 c 0.203125,0 0.4375,0 0.640625,0.015625 C 2.828125,-0.015625 3.03125,0 3.21875,0 3.28125,0 3.5625,-0.1875 3.5625,-0.34375 c 0,-0.109375 -0.25,-0.296875 -0.46875,-0.296875 -0.125,0 -0.265625,0 -0.40625,-0.015625 -0.234375,-0.015625 -0.0625,0.140625 -0.0625,0.0625 0,-0.046875 0,-0.0625 0.03125,-0.15625 z m 0,0"
             style="fill:#0066ff;stroke:none;stroke-width:0"
             inkscape:connector-curvature="0" />
        </g>
        <g
           id="g872"
           style="fill:#0066ff;fill-opacity:1">
          <path
             id="path870"
             transform="translate(186.626,134.765)"
             d="m 3.5,-3.171875 c 0.0625,-0.25 0.125,-1.015625 0.8125,-1.015625 0.046875,0 0.15625,-0.046875 0.375,0.078125 l 0.125,-0.28125 c -0.28125,0.046875 -0.65625,0.46875 -0.65625,0.71875 0,0.15625 0.296875,0.5 0.5625,0.5 0.21875,0 0.703125,-0.34375 0.703125,-0.734375 0,-0.515625 -0.75,-0.828125 -1.09375,-0.828125 -0.578125,0 -1.0625,0.578125 -1.03125,0.53125 C 3.203125,-4.46875 2.5,-4.734375 2.203125,-4.734375 c -1.03125,0 -1.78125,1.453125 -1.78125,1.703125 0,0.09375 0.28125,0.265625 0.296875,0.265625 0.078125,0 0.28125,-0.1875 0.296875,-0.28125 C 1.359375,-4.09375 1.84375,-4.1875 2.1875,-4.1875 2.375,-4.1875 2.546875,-4.25 2.546875,-3.671875 2.546875,-3.375 2.375,-2.703125 2,-1.3125 c -0.15625,0.625 -0.328125,0.875 -0.765625,0.875 -0.0625,0 -0.171875,0.046875 -0.375,-0.078125 l -0.125,0.28125 C 0.984375,-0.296875 1.375,-0.65625 1.375,-0.9375 c 0,-0.265625 -0.390625,-0.515625 -0.53125,-0.515625 -0.3125,0 -0.734375,0.421875 -0.734375,0.75 0,0.453125 0.671875,0.8125 1.109375,0.8125 0.671875,0 1.140625,-0.75 1.171875,-0.8125 L 2.09375,-0.8125 c 0.125,0.375 0.65625,0.921875 1.25,0.921875 1.03125,0 1.765625,-1.4375 1.765625,-1.6875 0,-0.109375 -0.25,-0.28125 -0.28125,-0.28125 -0.09375,0 -0.296875,0.21875 -0.3125,0.28125 C 4.1875,-0.515625 3.6875,-0.4375 3.375,-0.4375 c -0.390625,0 -0.390625,-0.15625 -0.390625,-0.484375 0,-0.21875 0.0625,-0.4375 0.171875,-0.875 z m 0,0"
             style="fill:#0066ff;stroke:none;stroke-width:0"
             inkscape:connector-curvature="0" />
        </g>
        <g
           id="g876"
           style="fill:#0066ff;fill-opacity:1">
          <path
             id="path874"
             transform="translate(194.533,134.765)"
             d="m 4.078125,-2.296875 h 2.78125 c 0.140625,0 0.5,-0.15625 0.5,-0.359375 0,-0.1875 -0.359375,-0.359375 -0.5,-0.359375 H 4.25 v -2.625 c 0,-0.140625 -0.171875,-0.5 -0.375,-0.5 -0.203125,0 -0.375,0.359375 -0.375,0.5 v 2.625 H 0.890625 C 0.75,-3.015625 0.375,-2.84375 0.375,-2.65625 c 0,0.203125 0.375,0.359375 0.515625,0.359375 H 3.5 V 0.34375 c 0,0.140625 0.171875,0.484375 0.375,0.484375 0.203125,0 0.375,-0.34375 0.375,-0.484375 v -2.640625 z m 0,0"
             style="fill:#0066ff;stroke:none;stroke-width:0"
             inkscape:connector-curvature="0" />
        </g>
        <g
           id="g880"
           style="fill:#0066ff;fill-opacity:1">
          <path
             id="path878"
             transform="translate(204.496,134.765)"
             d="M 2.546875,-6.96875 C 2.546875,-6.984375 2.375,-7.25 2.25,-7.25 c -0.21875,0 -0.953125,0.078125 -1.21875,0.109375 -0.078125,0 -0.359375,0.1875 -0.359375,0.359375 0,0.125 0.265625,0.28125 0.421875,0.28125 0.46875,0 0.3125,-0.09375 0.3125,0.015625 0,0.0625 -0.09375,0.40625 -0.140625,0.609375 l -0.8125,3.25 c -0.125,0.5 -0.15625,0.65625 -0.15625,1.015625 0,0.9375 0.703125,1.71875 1.4375,1.71875 1.171875,0 2.578125,-1.640625 2.578125,-3.078125 0,-0.90625 -0.703125,-1.765625 -1.5,-1.765625 -0.453125,0 -1,0.34375 -1.296875,0.640625 l 0.296875,0.125 z m -0.9375,3.765625 c 0.0625,-0.21875 0.015625,-0.125 0.109375,-0.234375 0.484375,-0.65625 0.8125,-0.75 1.078125,-0.75 0.359375,0 0.4375,0.140625 0.4375,0.78125 0,0.578125 -0.328125,1.734375 -0.5,2.109375 -0.328125,0.671875 -0.609375,0.859375 -1,0.859375 -0.34375,0 -0.5,-0.09375 -0.5,-0.84375 0,-0.1875 0,-0.375 0.15625,-1 z m 0,0"
             style="fill:#0066ff;stroke:none;stroke-width:0"
             inkscape:connector-curvature="0" />
        </g>
        <g
           id="g884"
           style="fill:#0066ff;fill-opacity:1">
          <path
             id="path882"
             transform="translate(208.772,134.765)"
             d="m 3.046875,-2.65625 c 0,-0.765625 -0.109375,-1.984375 -0.65625,-3.109375 -0.59375,-1.21875 -1.625,-2.046875 -1.71875,-2.046875 -0.0625,0 -0.28125,0.21875 -0.28125,0.28125 0,0.03125 0.046875,0.15625 0.234375,0.328125 0.984375,1 1.5,2.46875 1.5,4.546875 0,1.703125 -0.328125,3.34375 -1.5625,4.59375 -0.125,0.125 -0.171875,0.265625 -0.171875,0.296875 0,0.0625 0.21875,0.265625 0.28125,0.265625 0.09375,0 1.15625,-0.84375 1.75,-2.109375 0.515625,-1.09375 0.625,-2.203125 0.625,-3.046875 z m 0,0"
             style="fill:#0066ff;stroke:none;stroke-width:0"
             inkscape:connector-curvature="0" />
        </g>
        <g
           id="g888"
           style="fill:#0066ff;fill-opacity:1">
          <path
             id="path886"
             transform="translate(215.40609,134.765)"
             d="m 6.84375,-3.265625 c 0.15625,0 0.515625,-0.15625 0.515625,-0.359375 0,-0.1875 -0.359375,-0.359375 -0.5,-0.359375 H 0.890625 C 0.75,-3.984375 0.375,-3.8125 0.375,-3.625 c 0,0.203125 0.375,0.359375 0.515625,0.359375 z m 0.015625,1.9375 c 0.140625,0 0.5,-0.15625 0.5,-0.359375 C 7.359375,-1.890625 7,-2.046875 6.84375,-2.046875 H 0.890625 C 0.75,-2.046875 0.375,-1.890625 0.375,-1.6875 c 0,0.203125 0.375,0.359375 0.515625,0.359375 z m 0,0"
             style="fill:#0066ff;stroke:none;stroke-width:0"
             inkscape:connector-curvature="0" />
        </g>
        <g
           id="g892"
           style="fill:#0066ff;fill-opacity:1">
          <path
             id="path890"
             transform="translate(225.929,134.765)"
             d="m 6.5625,-2.296875 c 0.171875,0 0.5625,-0.125 0.5625,-0.328125 0,-0.203125 -0.390625,-0.328125 -0.5625,-0.328125 H 1.171875 C 1,-2.953125 0.625,-2.828125 0.625,-2.625 c 0,0.203125 0.375,0.328125 0.546875,0.328125 z m 0,0"
             style="fill:#0066ff;stroke:none;stroke-width:0"
             inkscape:connector-curvature="0" />
        </g>
        <g
           id="g896"
           style="fill:#0066ff;fill-opacity:1">
          <path
             id="path894"
             transform="translate(233.678,134.765)"
             d="M 3.09375,-6.546875 C 3.09375,-6.78125 2.9375,-6.96875 2.625,-6.96875 1.953125,-6.28125 1.203125,-6.328125 0.703125,-6.328125 V -5.6875 c 0.390625,0 1.09375,-0.046875 1.3125,-0.171875 v 4.90625 c 0,0.359375 0.140625,0.3125 -0.75,0.3125 h -0.5 v 0.65625 C 1.296875,-0.03125 2.15625,-0.03125 2.5625,-0.03125 c 0.390625,0 1.265625,0 1.78125,0.046875 v -0.65625 H 3.859375 c -0.90625,0 -0.765625,0.0625 -0.765625,-0.3125 z m 0,0"
             style="fill:#0066ff;stroke:none;stroke-width:0"
             inkscape:connector-curvature="0" />
        </g>
      </g>
    </g>
    <path
       style="fill:#c0c0c0;fill-opacity:1;stroke:none;stroke-width:0.23101911px;stroke-linecap:butt;stroke-linejoin:miter;stroke-opacity:1"
       d="m 44.713448,214.28022 18.9326,15.2782 102.374112,-110.35127 -19.93244,-14.2594 z"
       id="path2125"
       inkscape:connector-curvature="0"
       sodipodi:nodetypes="ccccc" />
    <path
       style="fill:none;stroke:#000000;stroke-width:0.84345627;stroke-linecap:butt;stroke-linejoin:miter;stroke-miterlimit:4;stroke-dasharray:none;stroke-opacity:1"
       d="M 155.8411,111.62972 53.985528,220.87469"
       id="path995"
       inkscape:connector-curvature="0" />
    <path
       style="fill:none;stroke:#b7b7b7;stroke-width:0.79336542;stroke-linecap:butt;stroke-linejoin:miter;stroke-miterlimit:4;stroke-dasharray:0.79336543, 2.3800963;stroke-dashoffset:0;stroke-opacity:1"
       d="m 63.646048,229.55842 90.105902,-96.67111 12.7511,-13.68018 h -0.48289"
       id="path99-6"
       inkscape:connector-curvature="0"
       sodipodi:nodetypes="cccc" />
    <path
       style="fill:none;stroke:#b7b7b7;stroke-width:0.78582883;stroke-linecap:butt;stroke-linejoin:miter;stroke-miterlimit:4;stroke-dasharray:0.78582877, 2.3574863;stroke-dashoffset:0;stroke-opacity:1"
       d="m 44.713448,214.28022 89.225872,-95.77861 12.62658,-13.55387 h -0.47818"
       id="path99-6-4"
       inkscape:connector-curvature="0"
       sodipodi:nodetypes="cccc" />
    <path
       style="fill:none;stroke:#000000;stroke-width:0.36500001;stroke-linecap:butt;stroke-linejoin:miter;stroke-miterlimit:4;stroke-dasharray:0.365, 0.365;stroke-dashoffset:0;stroke-opacity:1;marker-end:url(#Arrow2Lend)"
       d="m 151.00728,22.514195 c -3.47877,-2.756338 -6.97124,-5.523541 -10.45692,-8.285356"
       id="path4812"
       inkscape:connector-curvature="0"
       inkscape:path-effect="#path-effect4814"
       inkscape:original-d="m 151.00728,22.514195 c -3.47424,-2.76205 -6.97101,-5.523835 -10.45692,-8.285356"
       transform="matrix(0.89456588,0,0,0.85223337,15.690709,98.111399)" />
    <g
       id="g202"
       ns1:jacobian_sqrt="0.352778"
       inkscapeversion="0.92.4"
       ns1:alignment="middle center"
       ns1:scale="1.0"
       ns1:preamble="C:\\Users\\Daniela\\AppData\\Roaming\\inkscape\\extensions\\textext\\default_packages.tex"
       ns1:text="$\\mathbf{W}$"
       ns1:pdfconverter="pdf2svg"
       ns1:texconverter="xelatex"
       ns1:version="0.11.0"
       transform="matrix(0.62365858,0.53576564,-0.59401787,0.6035403,105.24432,-102.33251)">
      <g
         id="surface1">
        <g
           id="g199"
           style="fill:#000000;fill-opacity:1">
          <path
             id="path197"
             d="m 219.76107,149.89668 c 0.0625,-0.15625 -0.0625,-0.0156 0.25,-0.0469 0.20312,-0.0312 0.40625,-0.0312 0.70312,-0.0312 v -0.79688 c -0.40625,0.0156 -0.75,0.0312 -1.20312,0.0312 -0.375,0 -0.98438,0 -1.48438,-0.0312 v 0.79688 c 0.39063,0 0.85938,0 0.96875,0.0625 l -1.67187,4.34375 h 0.26562 l -1.6875,-4.40625 h 0.89063 v -0.79688 c -0.51563,0.0312 -1.45313,0.0312 -1.875,0.0312 -0.39063,0 -1.1875,0 -1.67188,-0.0312 v 0.79688 h 0.92188 l 0.34375,0.90625 -1.35938,3.5 h 0.28125 l -1.70312,-4.40625 h 0.89062 v -0.79688 c -0.51562,0.0312 -1.45312,0.0312 -1.875,0.0312 -0.39062,0 -1.17187,0 -1.67187,-0.0312 v 0.79688 h 0.92187 l 2.32813,6.03125 c 0.0625,0.17187 0.25,0.42187 0.5,0.42187 0.25,0 0.40625,-0.25 0.46875,-0.42187 l 1.73437,-4.48438 h -0.26562 l 1.73437,4.48438 c 0.0625,0.17187 0.23438,0.42187 0.48438,0.42187 0.25,0 0.42187,-0.25 0.48437,-0.42187 z m 0,0"
             style="stroke:none;stroke-width:0"
             inkscape:connector-curvature="0" />
        </g>
      </g>
    </g>
    <path
       style="fill:none;stroke:#000000;stroke-width:0.565;stroke-linecap:butt;stroke-linejoin:miter;stroke-miterlimit:4;stroke-dasharray:none;stroke-opacity:1;marker-start:url(#marker2843);marker-end:url(#SquareM)"
       d="m 43.655108,215.33856 18.9326,15.2782 -10e-6,2e-5"
       id="path2461"
       inkscape:connector-curvature="0" />
    <g
       id="g3224"
       ns1:jacobian_sqrt="1.058333"
       inkscapeversion="0.92.4"
       ns1:alignment="middle center"
       ns1:scale="3.0"
       ns1:preamble="C:\\Users\\Daniela\\AppData\\Roaming\\inkscape\\extensions\\textext\\default_packages.tex"
       ns1:text="$\\frac{1}{\\parallel \\mathbf{W}\\parallel_{2}}$"
       ns1:pdfconverter="pdf2svg"
       ns1:texconverter="xelatex"
       ns1:version="0.11.0"
       transform="matrix(0.79732151,0.69595053,-0.69595053,0.79732151,11.919508,11.688993)"
       inkscape:transform-center-x="10.431297"
       inkscape:transform-center-y="0.50050185">
      <g
         id="g3222">
        <g
           id="g3202"
           style="fill:#000000;fill-opacity:1">
          <path
             id="path3200"
             transform="translate(158.623,130.842)"
             d="m 2.515625,-4.625 c 0,-0.1875 -0.1875,-0.390625 -0.46875,-0.390625 -0.5,0.5 -1,0.4375 -1.484375,0.4375 V -3.9375 c 0.359375,0 0.953125,-0.046875 1.015625,-0.078125 v 3.25 c 0,0.234375 0.1875,0.125 -0.5,0.125 h -0.46875 v 0.65625 C 0.9375,0 1.796875,-0.03125 2.046875,-0.03125 c 0.21875,0 1.09375,0.03125 1.4375,0.046875 v -0.65625 H 3.03125 c -0.703125,0 -0.515625,0.109375 -0.515625,-0.125 z m 0,0"
             style="stroke:none;stroke-width:0"
             inkscape:connector-curvature="0" />
        </g>
        <path
           id="path3204"
           transform="matrix(1,0,0,-1,72,72)"
           d="M 77.90625,-60.273438 H 99.308594"
           style="fill:none;stroke:#000000;stroke-width:0.3985;stroke-linecap:butt;stroke-linejoin:miter;stroke-miterlimit:10;stroke-opacity:1"
           inkscape:connector-curvature="0" />
        <g
           id="g3208"
           style="fill:#000000;fill-opacity:1">
          <path
             id="path3206"
             transform="translate(149.908,138.2)"
             d="m 1.625,-5.125 c 0,-0.09375 -0.1875,-0.421875 -0.359375,-0.421875 -0.171875,0 -0.375,0.328125 -0.375,0.453125 v 6.375 c 0,0.125 0.203125,0.453125 0.375,0.453125 C 1.4375,1.734375 1.625,1.421875 1.625,1.3125 Z m 1.546875,0.03125 c 0,-0.125 -0.203125,-0.453125 -0.375,-0.453125 -0.15625,0 -0.359375,0.328125 -0.359375,0.421875 v 6.4375 c 0,0.109375 0.203125,0.421875 0.359375,0.421875 0.171875,0 0.375,-0.328125 0.375,-0.453125 z m 0,0"
             style="stroke:none;stroke-width:0"
             inkscape:connector-curvature="0" />
        </g>
        <g
           id="g3212"
           style="fill:#000000;fill-opacity:1">
          <path
             id="path3210"
             transform="translate(153.99,138.2)"
             d="m 8.46875,-4.453125 c 0.046875,-0.125 0,0.0625 0.359375,0.0625 H 9.125 V -5.1875 c -0.40625,0.03125 -0.65625,0.046875 -0.90625,0.046875 -0.234375,0 -1,-0.03125 -1.1875,-0.03125 v 0.78125 H 7.3125 c 0.046875,0 0.40625,-0.1875 0.40625,-0.140625 0,0.015625 -0.015625,0.0625 -0.03125,0.078125 L 6.5625,-1.71875 5.46875,-4.390625 h 0.546875 v -0.78125 c -0.515625,0.03125 -1.03125,0.03125 -1.40625,0.03125 -0.28125,0 -1,-0.03125 -1.21875,-0.03125 v 0.78125 h 0.6875 L 4.21875,-4.046875 3.25,-1.71875 2.15625,-4.390625 h 0.546875 v -0.78125 c -0.25,0.015625 -1.171875,0.03125 -1.40625,0.03125 -0.265625,0 -1,-0.03125 -1.21875,-0.03125 v 0.78125 h 0.6875 l 1.6875,4.078125 c 0.0625,0.15625 0.25,0.390625 0.5,0.390625 0.203125,0 0.40625,-0.203125 0.484375,-0.390625 L 4.59375,-3.109375 5.75,-0.3125 C 5.84375,-0.109375 6.09375,0.078125 6.265625,0.078125 6.5,0.078125 6.6875,-0.140625 6.75,-0.3125 Z m 0,0"
             style="stroke:none;stroke-width:0"
             inkscape:connector-curvature="0" />
        </g>
        <g
           id="g3216"
           style="fill:#000000;fill-opacity:1">
          <path
             id="path3214"
             transform="translate(163.34,138.2)"
             d="m 1.625,-5.125 c 0,-0.09375 -0.1875,-0.421875 -0.359375,-0.421875 -0.171875,0 -0.375,0.328125 -0.375,0.453125 v 6.375 c 0,0.125 0.203125,0.453125 0.375,0.453125 C 1.4375,1.734375 1.625,1.421875 1.625,1.3125 Z m 1.546875,0.03125 c 0,-0.125 -0.203125,-0.453125 -0.375,-0.453125 -0.15625,0 -0.359375,0.328125 -0.359375,0.421875 v 6.4375 c 0,0.109375 0.203125,0.421875 0.359375,0.421875 0.171875,0 0.375,-0.328125 0.375,-0.453125 z m 0,0"
             style="stroke:none;stroke-width:0"
             inkscape:connector-curvature="0" />
        </g>
        <g
           id="g3220"
           style="fill:#000000;fill-opacity:1">
          <path
             id="path3218"
             transform="translate(167.422,139.196)"
             d="M 2.9375,-1.359375 H 2.5625 C 2.515625,-1.0625 2.515625,-0.890625 2.4375,-0.84375 2.40625,-0.8125 2.125,-0.875 2.046875,-0.875 h -0.96875 l 0.140625,0.34375 c 0.328125,-0.25 0.6875,-0.53125 0.984375,-0.734375 C 2.65625,-1.5625 3.140625,-2 3.140625,-2.53125 c 0,-0.640625 -0.8125,-1.1875 -1.515625,-1.1875 -0.671875,0 -1.375,0.59375 -1.375,1.078125 0,0.265625 0.421875,0.5 0.5,0.5 0.125,0 0.484375,-0.28125 0.484375,-0.484375 0,-0.1875 -0.328125,-0.484375 -0.15625,-0.46875 -0.046875,0.078125 0.109375,0 0.4375,0 0.484375,0 0.6875,0.078125 0.6875,0.578125 0,0.40625 -0.234375,0.59375 -0.609375,0.921875 L 0.375,-0.5625 C 0.328125,-0.515625 0.265625,-0.390625 0.25,-0.34375 V 0 h 2.6875 l 0.234375,-1.359375 z m 0,0"
             style="stroke:none;stroke-width:0"
             inkscape:connector-curvature="0" />
        </g>
      </g>
    </g>
  </g>
</svg>
